<svg width="105" height="31" viewBox="0 0 105 31" fill="none" xmlns="http://www.w3.org/2000/svg">
<path d="M5.16 30.28C3.74667 30.28 2.62667 29.84 1.8 28.96C0.973333 28.0533 0.56 26.9467 0.56 25.64C0.56 24.4933 0.92 23.32 1.64 22.12C2.36 20.8933 3.41333 19.7067 4.8 18.56C6.18667 17.3867 7.88 16.3467 9.88 15.44V15.28C7.26667 14.08 5.32 12.7867 4.04 11.4C2.78667 9.98667 2.16 8.53333 2.16 7.04C2.16 6 2.4 5.10667 2.88 4.36C3.36 3.58667 3.97333 3 4.72 2.6C5.46667 2.17333 6.24 1.96 7.04 1.96C8.96 1.96 10.6 2.86667 11.96 4.68C13.32 6.46667 14.2667 8.96 14.8 12.16H14.96C15.7067 9.38667 16.5733 7.14667 17.56 5.44C18.5467 3.73333 19.6 2.48 20.72 1.68C21.84 0.879999 22.96 0.479999 24.08 0.479999C25.0133 0.479999 25.8267 0.719999 26.52 1.2C27.24 1.65333 27.8 2.29333 28.2 3.12C28.6267 3.92 28.84 4.82667 28.84 5.84C28.84 7.57333 28.0267 9.22667 26.4 10.8C24.8 12.3733 22.52 13.7467 19.56 14.92V15.08C22.6533 16.44 24.9067 17.96 26.32 19.64C27.7333 21.32 28.44 23 28.44 24.68C28.44 25.72 28.1733 26.6267 27.64 27.4C27.1067 28.1733 26.4133 28.7733 25.56 29.2C24.7333 29.6267 23.8667 29.84 22.96 29.84C20.9867 29.84 19.2533 28.84 17.76 26.84C16.2667 24.84 15.2133 22.0667 14.6 18.52H14.44C13.72 21.2933 12.84 23.5467 11.8 25.28C10.7867 27.0133 9.69333 28.28 8.52 29.08C7.37333 29.88 6.25333 30.28 5.16 30.28ZM42.9034 30.32C39.7034 30.32 37.1568 29.88 35.2634 29C33.3701 28.12 31.9968 26.8533 31.1434 25.2C30.2901 23.5467 29.8634 21.5733 29.8634 19.28C29.8634 16.3733 30.4501 13.9067 31.6234 11.88C32.8234 9.82667 34.4501 8.25333 36.5034 7.16C38.5834 6.06666 40.9301 5.52 43.5434 5.52C46.6634 5.52 48.9434 6.16 50.3834 7.44C51.8501 8.72 52.5834 10.4 52.5834 12.48C52.5834 14.1333 52.1301 15.56 51.2234 16.76C50.3434 17.96 49.1034 18.8933 47.5034 19.56C45.9301 20.2 44.1034 20.52 42.0234 20.52C41.0368 20.52 40.0634 20.44 39.1034 20.28C38.1701 20.0933 37.3168 19.8533 36.5434 19.56L37.5034 17.44C37.4234 18.08 37.3834 18.72 37.3834 19.36C37.3834 20.6933 37.8501 21.64 38.7834 22.2C39.7168 22.76 41.0101 23.04 42.6634 23.04C44.1568 23.04 45.4101 22.8933 46.4234 22.6C47.4368 22.28 48.3168 21.9733 49.0634 21.68C49.8368 21.3867 50.5568 21.24 51.2234 21.24C51.6768 21.24 52.1301 21.36 52.5834 21.6C53.0634 21.8133 53.4501 22.16 53.7434 22.64C54.0634 23.12 54.2234 23.7467 54.2234 24.52C54.2234 25.5867 53.7834 26.56 52.9034 27.44C52.0501 28.32 50.7834 29.0267 49.1034 29.56C47.4234 30.0667 45.3568 30.32 42.9034 30.32ZM40.5834 16.6C42.0234 16.6 43.2368 16.2667 44.2234 15.6C45.2101 14.9067 45.7034 14.08 45.7034 13.12C45.7034 12.4267 45.4634 11.8667 44.9834 11.44C44.5034 11.0133 43.8101 10.8 42.9034 10.8C41.9701 10.8 41.1034 10.9867 40.3034 11.36C39.5034 11.7067 38.8634 12.16 38.3834 12.72C37.9034 13.28 37.6634 13.9067 37.6634 14.6C37.6634 15.24 37.9168 15.7333 38.4234 16.08C38.9568 16.4267 39.6768 16.6 40.5834 16.6ZM61.1294 5.12C62.3294 5.12 63.156 5.46667 63.6094 6.16C64.0894 6.85333 64.3294 7.88 64.3294 9.24C64.3294 9.56 64.3027 9.90667 64.2494 10.28C64.2227 10.6267 64.1694 10.9467 64.0894 11.24L64.0094 10.44C64.6494 8.70667 65.6227 7.36 66.9294 6.4C68.236 5.41333 69.6227 4.92 71.0894 4.92C72.876 4.92 74.356 5.41333 75.5294 6.4C76.7027 7.38667 77.5827 8.77333 78.1694 10.56C78.756 12.3467 79.0494 14.4533 79.0494 16.88C79.0494 18.1867 78.996 19.4667 78.8894 20.72C78.7827 21.9733 78.636 23.12 78.4494 24.16C78.2627 25.2 78.0227 26.0533 77.7294 26.72C77.3294 27.68 76.7694 28.4 76.0494 28.88C75.3294 29.36 74.4627 29.6 73.4494 29.6C72.3827 29.6 71.556 29.24 70.9694 28.52C70.3827 27.7733 70.0894 26.7467 70.0894 25.44C70.0894 24.6133 70.1294 23.64 70.2094 22.52C70.316 21.3733 70.4094 20.2267 70.4894 19.08C70.5694 17.9333 70.6094 16.96 70.6094 16.16C70.6094 13.6 69.8094 12.32 68.2094 12.32C67.3294 12.32 66.5827 12.7333 65.9694 13.56C65.3827 14.36 64.996 15.4933 64.8094 16.96C64.7294 17.6267 64.676 18.4533 64.6494 19.44C64.6227 20.4267 64.596 21.4133 64.5694 22.4C64.5427 23.36 64.5027 24.1733 64.4494 24.84C64.2894 26.68 63.8494 28 63.1294 28.8C62.436 29.5733 61.476 29.96 60.2494 29.96C58.7827 29.96 57.676 29.5067 56.9294 28.6C56.1827 27.6667 55.8094 26.1067 55.8094 23.92C55.8094 22.8 55.836 21.5467 55.8894 20.16C55.9427 18.7733 56.0094 17.3867 56.0894 16C56.196 14.5867 56.316 13.3067 56.4494 12.16C56.716 9.97333 57.2094 8.25333 57.9294 7C58.676 5.74667 59.7427 5.12 61.1294 5.12ZM92.5944 30.12C90.2744 30.12 88.2477 29.6533 86.5144 28.72C84.781 27.76 83.4344 26.4 82.4744 24.64C81.541 22.88 81.0744 20.7867 81.0744 18.36C81.0744 15.8267 81.5544 13.6133 82.5144 11.72C83.4744 9.82667 84.8344 8.34667 86.5944 7.28C88.3544 6.21333 90.3944 5.68 92.7144 5.68C95.221 5.68 97.381 6.2 99.1944 7.24C101.034 8.25333 102.461 9.68 103.474 11.52C104.488 13.36 104.994 15.5067 104.994 17.96C104.994 20.4667 104.474 22.6267 103.434 24.44C102.421 26.2533 100.994 27.6533 99.1544 28.64C97.3144 29.6267 95.1277 30.12 92.5944 30.12ZM93.1544 22.6C94.3544 22.6 95.3144 22.1333 96.0344 21.2C96.7544 20.2667 97.1144 19.0267 97.1144 17.48C97.1144 15.9333 96.7544 14.6933 96.0344 13.76C95.3144 12.8267 94.3544 12.36 93.1544 12.36C91.9277 12.36 90.9544 12.8267 90.2344 13.76C89.5144 14.6667 89.1544 15.9067 89.1544 17.48C89.1544 19.0267 89.5144 20.2667 90.2344 21.2C90.9544 22.1333 91.9277 22.6 93.1544 22.6Z" fill="black"/>
</svg>
